<svg xmlns="http://www.w3.org/2000/svg" viewBox="0 0 40 40" width="40px" height="40px"><path fill="#dff0fe" d="M12.951,35c-3.46,0-6.843-0.823-9.897-2.395c3.589-0.042,6.973-1.229,9.797-3.442l1.106-0.867 l-1.406-0.026c-2.85-0.053-5.379-1.752-6.524-4.306c0.233,0.02,0.466,0.029,0.698,0.029c0.745,0,1.48-0.098,2.187-0.291 l2.038-0.557l-2.071-0.416c-3.154-0.633-5.503-3.28-5.816-6.435c0.94,0.398,1.956,0.624,2.979,0.657l1.748,0.056l-1.454-0.972 C4.303,14.679,3.09,12.408,3.09,9.964c0-1.048,0.225-2.081,0.654-3.025c4.04,4.63,9.809,7.443,15.944,7.75l0.661,0.033 l-0.148-0.645c-0.125-0.542-0.188-1.102-0.188-1.664c0-4.023,3.273-7.296,7.296-7.296c2.011,0,3.952,0.84,5.326,2.304l0.189,0.202 l0.272-0.054c1.337-0.263,2.628-0.691,3.853-1.279c-0.605,1.145-1.486,2.079-2.594,2.742L33.957,9.27L34.322,10l0.364-0.016 c0.988-0.121,1.94-0.328,2.875-0.628c-0.806,0.958-1.725,1.811-2.744,2.547l-0.218,0.157l0.011,0.27 c0.014,0.327,0.021,0.657,0.021,0.987C34.632,23.976,26.522,35,12.951,35z"/><path fill="#4788c7" d="M27.309,5.617c1.873,0,3.681,0.782,4.961,2.146l0.379,0.404l0.543-0.107 c0.806-0.159,1.595-0.376,2.364-0.649c-0.422,0.464-0.91,0.864-1.459,1.192l-0.789,0.508l0.426,0.833l0.318,0.622l0.693-0.085 c0.425-0.052,0.843-0.119,1.255-0.203c-0.464,0.437-0.958,0.844-1.478,1.22l-0.436,0.315l0.023,0.538 c0.014,0.32,0.021,0.643,0.021,0.966c0,10.412-7.923,21.182-21.181,21.182c-2.727,0-5.406-0.524-7.906-1.533 c2.959-0.382,5.73-1.542,8.115-3.411l2.213-1.735l-2.811-0.052c-2.371-0.044-4.504-1.311-5.693-3.277 c0.74-0.012,1.471-0.115,2.176-0.308l4.073-1.114l-4.14-0.831c-2.663-0.534-4.71-2.61-5.287-5.182 c0.756,0.235,1.543,0.37,2.335,0.395l3.495,0.113l-2.907-1.943C4.72,14.356,3.59,12.241,3.59,9.964 c0-0.713,0.112-1.418,0.328-2.089c4.093,4.37,9.748,7.014,15.746,7.314l1.322,0.066l-0.297-1.29 c-0.116-0.505-0.176-1.027-0.176-1.552C20.512,8.666,23.561,5.617,27.309,5.617 M27.309,4.617c-4.305,0-7.796,3.491-7.796,7.796 c0,0.611,0.07,1.206,0.201,1.776C13.234,13.865,7.49,10.76,3.644,6.044C2.974,7.195,2.59,8.534,2.59,9.964 c0,2.704,1.376,5.09,3.467,6.488c-1.278-0.041-2.479-0.391-3.531-0.975c0,0.033,0,0.065,0,0.098c0,3.778,2.687,6.929,6.254,7.644 c-0.654,0.179-1.343,0.274-2.055,0.274c-0.502,0-0.991-0.049-1.466-0.139c0.993,3.097,3.871,5.352,7.283,5.415 c-2.668,2.092-6.029,3.338-9.682,3.338c-0.629,0-1.249-0.036-1.86-0.109C4.45,34.21,8.548,35.5,12.951,35.5 c14.34,0,22.181-11.88,22.181-22.182c0-0.337-0.008-0.674-0.022-1.009c1.523-1.1,2.845-2.473,3.89-4.036 c-1.385,0.615-2.814,1.024-4.375,1.215l-0.014-0.027c1.61-0.964,2.756-2.453,3.339-4.274c-1.506,0.893-3.175,1.542-4.951,1.892 C31.577,5.564,29.551,4.617,27.309,4.617L27.309,4.617z"/></svg>